<?xml version="1.0" encoding="iso-8859-1"?>
<!-- Generator: Adobe Illustrator 19.0.0, SVG Export Plug-In . SVG Version: 6.00 Build 0)  -->
<svg version="1.1" id="Capa_1" xmlns="http://www.w3.org/2000/svg" xmlns:xlink="http://www.w3.org/1999/xlink" x="0px" y="0px"
	 viewBox="0 0 512 512" style="enable-background:new 0 0 512 512;" xml:space="preserve">
<g>
	<path style="fill:#3E721D;" d="M501.717,62.033c35.286,89.055-21.195,302.792-154.764,390.594
		C213.415,540.43,46.343,505.29,6.518,357.661c-24.6-91.178,41.123-158.036,174.676-245.824
		C314.734,24.035,466.932-25.784,501.717,62.033"/>
	<path style="fill:#3E721D;" d="M289.551,358.678c-96.145,67.006-225.321,75.908-272.222,8.578
		c-46.916-67.299,6.161-185.391,102.336-252.397c96.13-66.991,323.544-144.388,370.446-77.072
		C537.025,105.116,385.682,291.674,289.551,358.678"/>
</g>
<path style="fill:#A6D388;" d="M277.905,366.751C193.051,425.899,79.189,412.399,37.8,352.984s6.987-164.639,91.842-223.758
	C214.482,70.105,428.233-7.32,469.665,52.08C511.024,111.479,398.547,290.489,277.905,366.751"/>
<path style="fill:#C6E5B3;" d="M253.637,327.66c-66.416,46.282-146.494,46.09-178.878-0.398
	c-32.427-46.503-4.864-121.674,61.552-167.971s233.398-106.684,265.81-60.195C434.563,145.598,320.082,281.378,253.637,327.66"/>
<path style="fill:#662113;" d="M150.362,159.071c51.293-34.372,108.806-22.035,144.417,14.666
	c21.107,21.77-12.971,79.327-64.249,113.699c-51.264,34.343-114.525,25.971-121.453,10.775
	C87.867,251.678,99.098,193.443,150.362,159.071"/>
<path style="fill:#7C3225;" d="M178.501,168.182c22.256-14.931,50.32-12.071,62.701,6.353c12.337,18.439,4.333,45.5-17.938,60.432
	c-22.256,14.872-50.335,12.042-62.687-6.382C148.197,210.131,156.244,183.098,178.501,168.182"/>
<g>
</g>
<g>
</g>
<g>
</g>
<g>
</g>
<g>
</g>
<g>
</g>
<g>
</g>
<g>
</g>
<g>
</g>
<g>
</g>
<g>
</g>
<g>
</g>
<g>
</g>
<g>
</g>
<g>
</g>
</svg>
