<?xml version="1.0" encoding="iso-8859-1"?>
<!-- Generator: Adobe Illustrator 19.0.0, SVG Export Plug-In . SVG Version: 6.00 Build 0)  -->
<svg version="1.1" id="Capa_1" xmlns="http://www.w3.org/2000/svg" xmlns:xlink="http://www.w3.org/1999/xlink" x="0px" y="0px"
	 viewBox="0 0 512 512" style="enable-background:new 0 0 512 512;" xml:space="preserve">
<path style="fill:#8B5E3C;" d="M73.71,435.716C-32.37,329.651-22.818,148.123,95.047,30.257L479.169,414.38
	C361.305,532.26,179.776,541.782,73.71,435.716"/>
<path style="fill:#603913;" d="M95.048,30.256C36.123,89.181,74.33,222.95,180.396,329.031
	c106.096,106.065,239.85,144.273,298.775,85.348c58.925-58.91,20.718-192.679-85.362-298.76S153.958-28.654,95.048,30.256"/>
<path style="fill:#F5F8FA;" d="M467.324,345.929c3.455,3.471,8.45,5.071,13.384,4.165c5.839-1.072,10.503-5.462,11.921-11.242
	c1.026-4.059,23.766-100.648-45.465-169.88c-16.9-16.9-41.995-56.948-49.132-68.567c-6.036-6.262-11.075-4.074-22.605-15.618
	c-5.281-5.281-21.201-33.922-66.983,9.491c-5.281,5.01-5.885,13.249-1.751,19.239l158.864,230.298
	C466.102,344.585,466.69,345.294,467.324,345.929"/>
<path style="fill:#603913;" d="M376.04,74.188c-27.66-21.684-72.083-4.753-82.993,5.976c-10.306,10.291-7.047,29.937,1.223,41.919
	l158.879,230.314c1.041,1.525,2.218,2.927,3.501,4.195c6.926,6.941,16.916,10.156,26.784,8.345
	c11.695-2.128,21.02-10.924,23.857-22.468c1.086-4.421,25.712-108.993-49.449-184.169c-13.46-13.46-29.258-26.211-43.895-43.941
	c-4.964-6.398-17.897-21.745-31.311-35.143L376.04,74.188z M356.876,94.619C367.544,105.287,378.861,116,378.861,116
	s36.275,42.297,57.642,63.633C500.499,243.659,478,335.253,478,335.253L302.16,98.708C302.16,98.708,344.29,82.984,356.876,94.619"
	/>
<path style="fill:#F5F8FA;" d="M116.385,51.6c-47.14,47.14-8.933,161.791,85.362,256.071
	c94.28,94.28,208.932,132.503,256.072,85.362s8.933-161.791-85.348-256.071C278.177,42.666,163.526,4.459,116.385,51.6"/>
<g>
	<path style="fill:#99AAB5;" d="M147.726,84.278c-34.978,34.978-1.253,125.455,75.357,202.066
		c76.626,76.625,167.072,110.335,202.066,75.357c34.978-34.992,1.253-125.455-75.357-202.066S182.704,49.285,147.726,84.278"/>
	<path style="fill:#99AAB5;" d="M295.416,130.49l17.746-5.055c8.48-4.708,20.447-5.039,28.61,2.505l18.288,19.209
		c8.647,10.412,28.942,32.262,45.178,48.498c57.446,57.446,34.992,131.612,34.012,134.751c-0.86,2.746-3.214,4.753-6.066,5.19
		c-2.399,0.362-4.799-0.437-6.473-2.128c-0.317-0.302-0.604-0.649-0.86-1.026l-132.745-191.17c-1.192-1.72-1.63-3.848-1.192-5.885
		C292.352,133.327,293.619,131.576,295.416,130.49"/>
</g>
<path style="fill:#F5F8FA;" d="M349.148,373.679c0,0-48.422-31.462-56.904-56.904c-9.491-28.444-70.348-33.982-79.824-62.441
	c-9.461-28.444-25.291-71.902-33.997-89.301c-8.692-17.399-18.983-0.016-28.46-28.46c-9.477-28.474-28.428-47.441-28.428-47.441
	s0,132.805,28.428,161.249c28.46,28.46,142.28,142.28,151.772,132.773C311.213,373.679,349.148,373.679,349.148,373.679"/>
<path style="fill:#603913;" d="M335.245,398.95c0,0-56.284-38.282-65.127-64.795c-9.884-29.636-79.824-39.519-89.708-69.156
	c-9.884-29.636-24.068-82.782-28.867-88.908c-13.823-17.79-19.738-0.016-29.636-29.621c-9.868-29.681-29.621-49.419-29.621-49.419
	s0,138.312,29.621,167.948c29.636,29.651,148.196,148.196,158.08,138.312C289.885,393.442,335.245,398.95,335.245,398.95"/>
<path style="fill:#8B5E3C;" d="M319.115,425.048c0,0-54.474-35.385-64.01-64.01c-10.668-32.006-96.046-53.357-106.714-85.378
	c-10.668-32.006-10.668-74.678-21.336-85.348c-10.668-10.684-21.336,0-32.006-32.02c-10.669-32.005-32.006-53.342-32.006-53.342
	s0,149.372,32.006,181.393c32.006,32.006,160.041,160.041,170.71,149.372C276.442,425.048,319.115,425.048,319.115,425.048"/>
<path style="fill:#A97C50;" d="M183.838,464.334c1.056,1.072,2.52,1.781,4.21,1.992c56.872,6.429,104.013-17.157,106.005-18.168
	c4.059-2.067,6.036-6.881,4.376-10.774c-1.63-3.908-6.292-5.387-10.382-3.29c-0.437,0.226-41.391,27.81-93.27,21.925
	c-4.301-0.483-12.464-0.226-13.4,4.165C180.82,462.825,182.162,462.674,183.838,464.334 M27.554,325.827
	c1.735,1.72,1.614,3.199,4.376,2.49c4.346-1.102,4.497-7.787,3.848-12.042c-7.424-48.152,5.432-98.143,27.78-156.208
	c1.63-4.225-0.407-8.677-4.436-9.838c-4.09-1.192-8.736,1.267-10.352,5.508c-23.466,60.856-31.04,115.208-23.178,166.167
	C25.833,323.488,26.544,324.815,27.554,325.827 M153.764,476.239c1.374-4.301,12.615-0.905,16.795,0.016
	c104.647,23.027,175.945-20.899,176.73-21.261c4.104-2.053,8.736-0.513,10.336,3.365c1.6,3.893-0.393,8.722-4.467,10.744
	c-3.395,1.705-72.551,38.479-182.962,14.184c-1.374-0.317-10.88-1.977-11.8-2.897C156.555,478.548,152.828,479.138,153.764,476.239"
	/>
<g>
</g>
<g>
</g>
<g>
</g>
<g>
</g>
<g>
</g>
<g>
</g>
<g>
</g>
<g>
</g>
<g>
</g>
<g>
</g>
<g>
</g>
<g>
</g>
<g>
</g>
<g>
</g>
<g>
</g>
</svg>
