<?xml version="1.0" encoding="iso-8859-1"?>
<!-- Generator: Adobe Illustrator 19.1.0, SVG Export Plug-In . SVG Version: 6.00 Build 0)  -->
<svg version="1.1" id="Capa_1" xmlns="http://www.w3.org/2000/svg" xmlns:xlink="http://www.w3.org/1999/xlink" x="0px" y="0px"
	 viewBox="0 0 218.332 218.332" style="enable-background:new 0 0 218.332 218.332;" xml:space="preserve">
<g>
	<g id="group-77svg">
		<path id="path-1_143_" style="fill:#EDEDED;" d="M75.177,55.316c0,0,55.923-87.392,116.571,0c0,0,47.26,25.42,15.755,64.989
			c0,0-3.939,114.477-127.6,53.615C79.903,173.92-33.519,116.959,75.177,55.316z"/>
		<path id="path-2_143_" style="opacity:0.25;fill:#020403;enable-background:new    ;" d="M191.748,55.316
			c-18.848-27.159-37.237-37.431-53.637-38.697c12.23,5.161,25.21,15.898,38.416,34.927c0,0,47.26,25.419,15.754,64.989
			c0,0-2.905,84.205-81.755,69.771c93.702,28.729,96.977-66.001,96.977-66.001C239.008,80.736,191.748,55.316,191.748,55.316z"/>
		<path id="path-3_143_" style="opacity:0.25;fill:#020403;enable-background:new    ;" d="M168.411,106.26
			c0,21.275-17.41,38.522-38.887,38.522c-21.476,0-38.885-17.247-38.885-38.522c0-21.276,17.409-38.523,38.885-38.523
			C151.001,67.737,168.411,84.984,168.411,106.26z"/>
		<path id="path-4_142_" style="fill:#FBB713;" d="M160.152,106.26c0,16.757-13.712,30.34-30.628,30.34
			c-16.914,0-30.627-13.583-30.627-30.34s13.713-30.34,30.627-30.34C146.44,75.92,160.152,89.503,160.152,106.26z"/>
		<path id="path-5_142_" style="fill:#FFFFFF;" d="M111.542,108.648c-2.011,0-3.638-1.614-3.638-3.605
			c0-13.219,10.856-23.972,24.196-23.972c2.011,0,3.64,1.614,3.64,3.605c0,1.989-1.629,3.603-3.64,3.603
			c-9.328,0-16.918,7.521-16.918,16.764C115.182,107.034,113.554,108.648,111.542,108.648z"/>
		<path id="path-6_140_" style="fill:#FBB713;" d="M40.521,173.535H28.783c-2.263,0-4.097,2.115-4.097,4.721
			c0,2.607,1.834,4.72,4.097,4.72h0.546c2.264,0,4.098,2.113,4.098,4.721c0,2.607-1.834,4.721-4.098,4.721H4.097
			c-2.262,0-4.097,2.113-4.097,4.72c0,2.606,1.835,4.72,4.097,4.72h30.322h61.979c2.264,0,4.098-2.114,4.098-4.72
			c0-2.607-1.834-4.72-4.098-4.72h-7.002c-2.262,0-4.097-2.114-4.097-4.721c0-2.608,1.835-4.721,4.097-4.721h33.327
			c2.264,0,4.098-2.113,4.098-4.72c0-2.606-1.834-4.721-4.098-4.721h-7.876H40.521z"/>
		<path id="path-7_140_" style="fill:#FBB713;" d="M141.041,201.379c-3.719,0-6.735-1.473-6.735-3.29
			c0-1.818,3.016-3.291,6.735-3.291h20.636c3.72,0,6.734,1.473,6.734,3.291c0,1.817-3.014,3.29-6.734,3.29H141.041z"/>
		<path id="path-8_137_" style="fill:#FBB713;" d="M54.305,24.963H49.49c-0.929,0-1.682,0.867-1.682,1.936
			c0,1.07,0.753,1.937,1.682,1.937h0.224c0.928,0,1.681,0.867,1.681,1.936c0,1.07-0.753,1.936-1.681,1.936H39.362
			c-0.927,0-1.68,0.867-1.68,1.937s0.753,1.937,1.68,1.937h12.441h25.425c0.927,0,1.681-0.867,1.681-1.937s-0.754-1.937-1.681-1.937
			h-2.873c-0.929,0-1.681-0.866-1.681-1.936c0-1.069,0.752-1.936,1.681-1.936h13.672c0.929,0,1.68-0.867,1.68-1.937
			c0-1.069-0.751-1.936-1.68-1.936h-3.231H54.305z"/>
		<path id="path-9_131_" style="fill:#FBB713;" d="M112.364,39.35c-2.33,0-4.221-0.923-4.221-2.063s1.891-2.064,4.221-2.064h12.939
			c2.332,0,4.221,0.924,4.221,2.064s-1.889,2.063-4.221,2.063H112.364z"/>
	</g>
</g>
<g>
</g>
<g>
</g>
<g>
</g>
<g>
</g>
<g>
</g>
<g>
</g>
<g>
</g>
<g>
</g>
<g>
</g>
<g>
</g>
<g>
</g>
<g>
</g>
<g>
</g>
<g>
</g>
<g>
</g>
</svg>
